Coordinates
version=1
nRows=8
nColumns=40
inDegrees=yes

Units are S.I. units (second, meters, Newtons, ...)
If the header above contains a line with 'inDegrees', this indicates whether rotational values are in degrees (yes) or radians (no).

endheader
time	pelvis_tilt	pelvis_list	pelvis_rotation	pelvis_tx	pelvis_ty	pelvis_tz	hip_flexion_r	hip_adduction_r	hip_rotation_r	knee_angle_r	knee_angle_r_beta	ankle_angle_r	subtalar_angle_r	mtp_angle_r	hip_flexion_l	hip_adduction_l	hip_rotation_l	knee_angle_l	knee_angle_l_beta	ankle_angle_l	subtalar_angle_l	mtp_angle_l	lumbar_extension	lumbar_bending	lumbar_rotation	arm_flex_r	arm_add_r	arm_rot_r	elbow_flex_r	pro_sup_r	wrist_flex_r	wrist_dev_r	arm_flex_l	arm_add_l	arm_rot_l	elbow_flex_l	pro_sup_l	wrist_flex_l	wrist_dev_l
      3.88300000	      0.21386803	     11.12130033	      2.93649946	      0.07120002	      1.32003574	      0.00451190	     31.77155871	    -18.62277159	     -2.25465804	     43.31657541	      0.75601686	     -2.94135001	    -12.36356589	      0.00000000	     57.89627147	      1.12176953	     -2.12272574	    109.34325680	      1.90839985	      9.21047004	     -5.71967359	      0.00000000	    -58.49590585	      3.78002283	    -10.47844788	     46.04361416	      2.41382499	    -14.63508046	     49.99784366	     40.73313766	      0.00000000	      0.00000000	     53.64601676	     17.60687553	     -8.73659869	     31.89271348	      7.93168255	      0.00000000	      0.00000000
      3.90000000	      0.01072092	     11.08278803	      3.17760657	      0.07097313	      1.31948071	      0.00419146	     30.08738543	    -18.42196509	     -2.91474712	     42.38500938	      0.73975797	     -4.00726192	    -12.30131099	      0.00000000	     60.37761883	      1.10690416	     -2.31066764	    110.13553759	      1.92222775	      9.32470546	     -5.59987018	      0.00000000	    -58.29507798	      3.94653521	    -10.58739725	     45.99392659	      2.32907873	    -14.67441905	     49.92736218	     40.74099618	      0.00000000	      0.00000000	     53.65443781	     17.43318523	     -8.11484928	     31.67130270	      7.86079090	      0.00000000	      0.00000000
      3.91700000	     -0.08026490	     11.00312668	      3.02367215	      0.07081344	      1.31908410	      0.00433551	     28.76592310	    -17.99903012	     -3.10033551	     42.14590437	      0.73558480	     -4.65864109	    -12.06894558	      0.00000000	     62.49095522	      0.86363937	     -2.80823441	    110.27799841	      1.92471416	      9.47584773	     -5.86828725	      0.00000000	    -58.22396159	      3.89474072	    -10.52695783	     46.00186547	      2.23376322	    -14.57174799	     49.87607513	     40.75769489	      0.00000000	      0.00000000	     53.65287880	     17.26215126	     -7.70993014	     31.54366811	      7.89871791	      0.00000000	      0.00000000
      3.93300000	     -0.01847350	     10.81260905	      2.58533163	      0.07084401	      1.31886330	      0.00474895	     27.73613815	    -17.44082851	     -3.16840834	     42.73048342	      0.74578763	     -4.86282042	    -11.79388390	      0.00000000	     64.20107391	      0.42673038	     -3.41991460	    109.85626016	      1.91735344	      9.55713783	     -6.37167973	      0.00000000	    -58.30679616	      3.76166388	    -10.26891014	     46.03430802	      2.13949038	    -14.33951302	     49.86058076	     40.78577235	      0.00000000	      0.00000000	     53.62876976	     17.08043948	     -7.40685008	     31.49319863	      7.98640580	      0.00000000	      0.00000000
      3.95000000	      0.10359258	     10.58850120	      2.20356226	      0.07090746	      1.31887896	      0.00519829	     26.99964714	    -16.89525413	     -3.17498328	     43.95556208	      0.76716928	     -4.69085840	    -11.56616274	      0.00000000	     65.43294674	      0.05385785	     -3.95940675	    108.89594976	      1.90059287	      9.65702808	     -6.80240727	      0.00000000	    -58.46808510	      3.70740247	    -10.00155292	     46.09021320	      2.07604783	    -14.15140101	     49.89181230	     40.81708768	      0.00000000	      0.00000000	     53.57764913	     16.93232792	     -7.30491397	     31.57213502	      8.51209580	      0.00000000	      0.00000000
      3.96700000	      0.09545178	     10.51814612	      1.57251146	      0.07094575	      1.31879920	      0.00582024	     26.95538693	    -16.40504699	     -2.78760551	     45.96880932	      0.80230708	     -3.88888921	    -11.48371965	      0.00000000	     66.31672699	     -0.42048345	     -4.96606478	    107.42951458	      1.87499874	      9.55467084	     -8.45606405	      0.00000000	    -58.50859131	      3.34003592	     -9.70820298	     46.16590652	      1.99186643	    -13.90635605	     49.94914678	     40.70833971	      0.00000000	      0.00000000	     53.57871917	     16.83580568	     -6.99701559	     31.60628656	      7.53216633	      0.00000000	      0.00000000
      3.98300000	      0.38458621	     10.23271536	      1.27368553	      0.07118346	      1.31930048	      0.00620691	     26.75019888	    -15.95930101	     -3.06364240	     48.59749980	      0.84818638	     -2.70248748	    -11.60094991	      0.00000000	     66.47890530	     -0.67716293	     -5.48880140	    105.49785413	      1.84128491	      9.86555213	     -9.04066713	      0.00000000	    -58.85000130	      3.42814660	     -9.41160424	     46.29244057	      1.95113138	    -13.66643282	     50.04158123	     40.70561469	      0.00000000	      0.00000000	     53.57292159	     16.78427860	     -6.98220502	     31.78104270	      7.31196465	      0.00000000	      0.00000000
      4.00000000	      0.71751106	      9.80439843	      0.97939692	      0.07151811	      1.31993065	      0.00654461	     26.81581675	    -15.47867317	     -3.40589211	     51.57725845	      0.90019298	     -2.07692809	    -11.50177358	      0.00000000	     66.17472001	     -0.94669248	     -5.70030136	    103.20211699	      1.80121674	     10.14355891	     -9.33961901	      0.00000000	    -59.22276761	      3.60805580	     -8.98567844	     46.42556710	      1.91923971	    -13.50291525	     50.10056707	     40.72478098	      0.00000000	      0.00000000	     53.53158297	     16.71300391	     -7.01199114	     31.97741076	      7.43256492	      0.00000000	      0.00000000
